<svg xmlns="http://www.w3.org/2000/svg" width="640" height="360">
<text x="320.0" y="24" text-anchor="middle" font-size="18">Architecture Comparison: blotto</text>
<rect x="40" y="239.33333333333331" width="40" height="80.66666666666667" fill="#2f6db3" />
<text x="60.0" y="336" text-anchor="middle" font-size="10">single</text>
<text x="60.0" y="233.33333333333331" text-anchor="middle" font-size="10">0.275</text>
<rect x="100" y="165.99999999999997" width="40" height="154.00000000000003" fill="#2f6db3" />
<text x="120.0" y="336" text-anchor="middle" font-size="10">parallel</text>
<text x="120.0" y="159.99999999999997" text-anchor="middle" font-size="10">0.525</text>
<rect x="160" y="217.33333333333334" width="40" height="102.66666666666666" fill="#2f6db3" />
<text x="180.0" y="336" text-anchor="middle" font-size="10">hierarchical</text>
<text x="180.0" y="211.33333333333334" text-anchor="middle" font-size="10">0.35</text>
<rect x="220" y="136.66666666666666" width="40" height="183.33333333333334" fill="#2f6db3" />
<text x="240.0" y="336" text-anchor="middle" font-size="10">parallel_lmh</text>
<text x="240.0" y="130.66666666666666" text-anchor="middle" font-size="10">0.625</text>
<rect x="280" y="173.33333333333334" width="40" height="146.66666666666666" fill="#2f6db3" />
<text x="300.0" y="336" text-anchor="middle" font-size="10">parallel_hhl</text>
<text x="300.0" y="167.33333333333334" text-anchor="middle" font-size="10">0.5</text>
<rect x="340" y="173.33333333333334" width="40" height="146.66666666666666" fill="#2f6db3" />
<text x="360.0" y="336" text-anchor="middle" font-size="10">parallel_llh</text>
<text x="360.0" y="167.33333333333334" text-anchor="middle" font-size="10">0.5</text>
<rect x="400" y="210.0" width="40" height="110.0" fill="#2f6db3" />
<text x="420.0" y="336" text-anchor="middle" font-size="10">hierarchical_lmh</text>
<text x="420.0" y="204.0" text-anchor="middle" font-size="10">0.375</text>
<rect x="460" y="210.0" width="40" height="110.0" fill="#2f6db3" />
<text x="480.0" y="336" text-anchor="middle" font-size="10">hierarchical_hhl</text>
<text x="480.0" y="204.0" text-anchor="middle" font-size="10">0.375</text>
<rect x="520" y="173.33333333333334" width="40" height="146.66666666666666" fill="#2f6db3" />
<text x="540.0" y="336" text-anchor="middle" font-size="10">hierarchical_llh</text>
<text x="540.0" y="167.33333333333334" text-anchor="middle" font-size="10">0.5</text>
<rect x="580" y="173.33333333333334" width="40" height="146.66666666666666" fill="#2f6db3" />
<text x="600.0" y="336" text-anchor="middle" font-size="10">parallel_qmix</text>
<text x="600.0" y="167.33333333333334" text-anchor="middle" font-size="10">0.5</text>
<rect x="640" y="246.66666666666669" width="40" height="73.33333333333333" fill="#2f6db3" />
<text x="660.0" y="336" text-anchor="middle" font-size="10">parallel_f16f16q4</text>
<text x="660.0" y="240.66666666666669" text-anchor="middle" font-size="10">0.25</text>
<rect x="700" y="100.0" width="40" height="220.0" fill="#2f6db3" />
<text x="720.0" y="336" text-anchor="middle" font-size="10">parallel_q4q4f16</text>
<text x="720.0" y="94.0" text-anchor="middle" font-size="10">0.75</text>
<rect x="760" y="100.0" width="40" height="220.0" fill="#2f6db3" />
<text x="780.0" y="336" text-anchor="middle" font-size="10">hierarchical_qmix</text>
<text x="780.0" y="94.0" text-anchor="middle" font-size="10">0.75</text>
<rect x="820" y="173.33333333333334" width="40" height="146.66666666666666" fill="#2f6db3" />
<text x="840.0" y="336" text-anchor="middle" font-size="10">hierarchical_f16f16q4</text>
<text x="840.0" y="167.33333333333334" text-anchor="middle" font-size="10">0.5</text>
<rect x="880" y="173.33333333333334" width="40" height="146.66666666666666" fill="#2f6db3" />
<text x="900.0" y="336" text-anchor="middle" font-size="10">hierarchical_q4q4f16</text>
<text x="900.0" y="167.33333333333334" text-anchor="middle" font-size="10">0.5</text>
</svg>