<svg xmlns="http://www.w3.org/2000/svg" width="980" height="560" viewBox="0 0 980 560">
<defs>
  <linearGradient id="bgGradient" x1="0%" x2="100%" y1="0%" y2="100%">
    <stop offset="0%" stop-color="#f6f1e8" />
    <stop offset="100%" stop-color="#fffdf9" />
  </linearGradient>
</defs>
<style>
  .title { font: 700 24px Georgia, serif; fill: #1f1b16; }
  .subtitle { font: 12px Menlo, Consolas, monospace; fill: #6c6256; letter-spacing: 0.04em; text-transform: uppercase; }
  .axis-label { font: 13px Menlo, Consolas, monospace; fill: #4d4439; }
  .tick { font: 11px Menlo, Consolas, monospace; fill: #6c6256; }
  .cell-label { font: 11px Menlo, Consolas, monospace; fill: #2f2a24; }
  .note { font: 11px Menlo, Consolas, monospace; fill: #7e7467; }
</style>
<rect width="980" height="560" rx="24" fill="url(#bgGradient)" />
<text class="title" x="36" y="42">Connect 4 Oracle Tradeoff Map</text>
<text class="subtitle" x="36" y="64">Research question: which teams improve accuracy without increasing blunders?</text>
<line x1="88" y1="104" x2="88" y2="478" stroke="#53483c" stroke-width="1.4" />
<line x1="88" y1="478" x2="938" y2="478" stroke="#53483c" stroke-width="1.4" />
<text class="axis-label" x="513.0" y="536" text-anchor="middle">Blunder rate (left is better)</text>
<text class="axis-label" x="26" y="291.0" text-anchor="middle" transform="rotate(-90 26 291.0)">Oracle agreement (%)</text>
<text class="note" x="944" y="42" text-anchor="end">bubble size = consistency_per_state_agreement</text>
<line x1="938.0" y1="104" x2="938.0" y2="478" stroke="#ddd2c4" stroke-width="1" />
<line x1="88" y1="478.0" x2="938" y2="478.0" stroke="#ddd2c4" stroke-width="1" />
<text class="tick" x="938.0" y="498" text-anchor="middle">0.55</text>
<text class="tick" x="78" y="482.0" text-anchor="end">0.00</text>
<line x1="725.5000000000002" y1="104" x2="725.5000000000002" y2="478" stroke="#ddd2c4" stroke-width="1" />
<line x1="88" y1="384.5" x2="938" y2="384.5" stroke="#ddd2c4" stroke-width="1" />
<text class="tick" x="725.5000000000002" y="498" text-anchor="middle">0.63</text>
<text class="tick" x="78" y="388.5" text-anchor="end">11.57</text>
<line x1="513.0" y1="104" x2="513.0" y2="478" stroke="#ddd2c4" stroke-width="1" />
<line x1="88" y1="291.0" x2="938" y2="291.0" stroke="#ddd2c4" stroke-width="1" />
<text class="tick" x="513.0" y="498" text-anchor="middle">0.72</text>
<text class="tick" x="78" y="295.0" text-anchor="end">23.14</text>
<line x1="300.4999999999999" y1="104" x2="300.4999999999999" y2="478" stroke="#ddd2c4" stroke-width="1" />
<line x1="88" y1="197.5" x2="938" y2="197.5" stroke="#ddd2c4" stroke-width="1" />
<text class="tick" x="300.4999999999999" y="498" text-anchor="middle">0.80</text>
<text class="tick" x="78" y="201.5" text-anchor="end">34.71</text>
<line x1="88.0" y1="104" x2="88.0" y2="478" stroke="#ddd2c4" stroke-width="1" />
<line x1="88" y1="104.0" x2="938" y2="104.0" stroke="#ddd2c4" stroke-width="1" />
<text class="tick" x="88.0" y="498" text-anchor="middle">0.88</text>
<text class="tick" x="78" y="108.0" text-anchor="end">46.28</text>
<circle cx="216.8852149267832" cy="343.29554872805363" r="22.0" fill="#205f8f" fill-opacity="0.76" stroke="#fffaf2" stroke-width="2.2" />
<text class="tick" x="244.8852149267832" y="319.29554872805363">parallel_lmh</text>
<circle cx="646.1375874951691" cy="206.20730542699977" r="15.0" fill="#205f8f" fill-opacity="0.76" stroke="#fffaf2" stroke-width="2.2" />
<text class="tick" x="667.1375874951691" y="189.20730542699977">parallel_hhl</text>
<circle cx="879.3793103448276" cy="131.70370370370375" r="15.0" fill="#205f8f" fill-opacity="0.76" stroke="#fffaf2" stroke-width="2.2" />
<text class="tick" x="900.3793103448276" y="114.70370370370375">parallel_llh</text>
<circle cx="146.62068965517244" cy="365.7597583582883" r="15.0" fill="#205f8f" fill-opacity="0.76" stroke="#fffaf2" stroke-width="2.2" />
<text class="tick" x="167.62068965517244" y="348.7597583582883">hierarchical_lmh</text>
<circle cx="242.82903964245506" cy="335.0532847630036" r="18.5" fill="#205f8f" fill-opacity="0.76" stroke="#fffaf2" stroke-width="2.2" />
<text class="tick" x="267.3290396424551" y="314.5532847630036">hierarchical_hhl</text>
<circle cx="397.56542276806823" cy="285.599700972703" r="17.333333333333336" fill="#205f8f" fill-opacity="0.76" stroke="#fffaf2" stroke-width="2.2" />
<text class="tick" x="420.89875610140155" y="266.26636763936966">hierarchical_llh</text>
<circle cx="533.075578649032" cy="242.32781515618993" r="17.333333333333336" fill="#b65433" fill-opacity="0.76" stroke="#fffaf2" stroke-width="2.2" />
<text class="tick" x="556.4089119823653" y="222.99448182285659">parallel_qmix</text>
<circle cx="481.882853094001" cy="258.6507300673676" r="15.0" fill="#b65433" fill-opacity="0.76" stroke="#fffaf2" stroke-width="2.2" />
<text class="tick" x="502.882853094001" y="241.6507300673676">parallel_f16f16q4</text>
<circle cx="456.42336926181986" cy="266.81218752295644" r="15.0" fill="#b65433" fill-opacity="0.76" stroke="#fffaf2" stroke-width="2.2" />
<text class="tick" x="477.42336926181986" y="249.81218752295644">parallel_q4q4f16</text>
<circle cx="228.9305621162024" cy="339.45723952864313" r="15.0" fill="#b65433" fill-opacity="0.76" stroke="#fffaf2" stroke-width="2.2" />
<text class="tick" x="249.9305621162024" y="322.45723952864313">hierarchical_qmix</text>
<circle cx="638.4723665564476" cy="208.63150071083805" r="15.0" fill="#b65433" fill-opacity="0.76" stroke="#fffaf2" stroke-width="2.2" />
<text class="tick" x="659.4723665564476" y="191.63150071083805">hierarchical_f16f16q4</text>
<circle cx="216.8852149267832" cy="343.29554872805363" r="8.0" fill="#b65433" fill-opacity="0.76" stroke="#fffaf2" stroke-width="2.2" />
<text class="tick" x="230.8852149267832" y="333.29554872805363">hierarchical_q4q4f16</text>
<circle cx="88" cy="80" r="10" fill="#205f8f" fill-opacity="0.76" stroke="#fffaf2" stroke-width="2.2" />
<text class="tick" x="106" y="84">model_scale</text>
<circle cx="268" cy="80" r="10" fill="#b65433" fill-opacity="0.76" stroke="#fffaf2" stroke-width="2.2" />
<text class="tick" x="286" y="84">quantization</text>
</svg>