<svg xmlns="http://www.w3.org/2000/svg" width="920" height="520">
<rect width="920" height="520" fill="#fcfbf7" />
<text x="460.0" y="28" text-anchor="middle" font-size="20" font-family="Georgia, serif">Connect 4 Internal Tournament: Consistency vs Win Rate</text>
<line x1="90" y1="60" x2="90" y2="440" stroke="#333" stroke-width="1.5" />
<line x1="90" y1="440" x2="880" y2="440" stroke="#333" stroke-width="1.5" />
<text x="485.0" y="496" text-anchor="middle" font-size="14">Per-state agreement</text>
<text x="24" y="250.0" text-anchor="middle" font-size="14" transform="rotate(-90 24 250.0)">Win rate</text>
<line x1="90.0" y1="60" x2="90.0" y2="440" stroke="#d8d3c8" stroke-width="1" />
<line x1="90" y1="440.0" x2="880" y2="440.0" stroke="#d8d3c8" stroke-width="1" />
<text x="90.0" y="458" text-anchor="middle" font-size="11">0.56</text>
<text x="80" y="444.0" text-anchor="end" font-size="11">0.24</text>
<line x1="287.5000000000001" y1="60" x2="287.5000000000001" y2="440" stroke="#d8d3c8" stroke-width="1" />
<line x1="90" y1="345.0" x2="880" y2="345.0" stroke="#d8d3c8" stroke-width="1" />
<text x="287.5000000000001" y="458" text-anchor="middle" font-size="11">0.64</text>
<text x="80" y="349.0" text-anchor="end" font-size="11">0.40</text>
<line x1="485.00000000000017" y1="60" x2="485.00000000000017" y2="440" stroke="#d8d3c8" stroke-width="1" />
<line x1="90" y1="250.0" x2="880" y2="250.0" stroke="#d8d3c8" stroke-width="1" />
<text x="485.00000000000017" y="458" text-anchor="middle" font-size="11">0.72</text>
<text x="80" y="254.0" text-anchor="end" font-size="11">0.55</text>
<line x1="682.4999999999999" y1="60" x2="682.4999999999999" y2="440" stroke="#d8d3c8" stroke-width="1" />
<line x1="90" y1="155.0" x2="880" y2="155.0" stroke="#d8d3c8" stroke-width="1" />
<text x="682.4999999999999" y="458" text-anchor="middle" font-size="11">0.80</text>
<text x="80" y="159.0" text-anchor="end" font-size="11">0.71</text>
<line x1="880.0" y1="60" x2="880.0" y2="440" stroke="#d8d3c8" stroke-width="1" />
<line x1="90" y1="60.0" x2="880" y2="60.0" stroke="#d8d3c8" stroke-width="1" />
<text x="880.0" y="458" text-anchor="middle" font-size="11">0.88</text>
<text x="80" y="64.0" text-anchor="end" font-size="11">0.86</text>
<circle cx="655.2586206896549" cy="403.22580645161287" r="6" fill="#1f6aa5" opacity="0.9" />
<text x="663.2586206896549" y="395.22580645161287" font-size="11">parallel_lmh</text>
<circle cx="825.5172413793102" cy="219.35483870967744" r="6" fill="#1f6aa5" opacity="0.9" />
<text x="833.5172413793102" y="211.35483870967744" font-size="11">parallel_hhl</text>
<circle cx="195.5603448275861" cy="219.35483870967744" r="6" fill="#1f6aa5" opacity="0.9" />
<text x="203.5603448275861" y="211.35483870967744" font-size="11">parallel_llh</text>
<circle cx="144.4827586206897" cy="403.22580645161287" r="6" fill="#c65f28" opacity="0.9" />
<text x="152.4827586206897" y="395.22580645161287" font-size="11">hierarchical_lmh</text>
<circle cx="314.74137931034477" cy="96.7741935483871" r="6" fill="#c65f28" opacity="0.9" />
<text x="322.74137931034477" y="88.7741935483871" font-size="11">hierarchical_hhl</text>
<circle cx="348.7931034482757" cy="341.93548387096774" r="6" fill="#c65f28" opacity="0.9" />
<text x="356.7931034482757" y="333.93548387096774" font-size="11">hierarchical_llh</text>
<circle cx="710.7142857142856" cy="341.93548387096774" r="6" fill="#1f6aa5" opacity="0.9" />
<text x="718.7142857142856" y="333.93548387096774" font-size="11">parallel_qmix</text>
<circle cx="675.6896551724137" cy="158.06451612903234" r="6" fill="#1f6aa5" opacity="0.9" />
<text x="683.6896551724137" y="150.06451612903234" font-size="11">parallel_f16f16q4</text>
<circle cx="553.1034482758619" cy="341.93548387096774" r="6" fill="#1f6aa5" opacity="0.9" />
<text x="561.1034482758619" y="333.93548387096774" font-size="11">parallel_q4q4f16</text>
<circle cx="430.5172413793101" cy="219.35483870967744" r="6" fill="#c65f28" opacity="0.9" />
<text x="438.5172413793101" y="211.35483870967744" font-size="11">hierarchical_qmix</text>
<circle cx="246.6379310344827" cy="280.64516129032256" r="6" fill="#c65f28" opacity="0.9" />
<text x="254.6379310344827" y="272.64516129032256" font-size="11">hierarchical_f16f16q4</text>
<circle cx="185.3448275862068" cy="403.22580645161287" r="6" fill="#c65f28" opacity="0.9" />
<text x="193.3448275862068" y="395.22580645161287" font-size="11">hierarchical_q4q4f16</text>
<circle cx="90" cy="472" r="5" fill="#1f6aa5" />
<text x="100" y="476" font-size="11">parallel</text>
<circle cx="230" cy="472" r="5" fill="#c65f28" />
<text x="240" y="476" font-size="11">hierarchical</text>
<circle cx="370" cy="472" r="5" fill="#3a8f5a" />
<text x="380" y="476" font-size="11">single</text>
</svg>